<svg xmlns="http://www.w3.org/2000/svg" xml:space="preserve" width="2000" height="1500" data-id="lg_1gZLBtG8JWcbR3FbDH" data-version="1"><path fill="#fff" stroke="transparent" d="M0 0h2000v1500H0z"/><g data-padding="20"><g transform="translate(-1744.917 -1322.461)scale(2.67014)"><rect width="201.727" height="201.727" x="837.311" y="452.315" fill="#fb7f25" rx="13" ry="13" transform="matrix(.68 0 0 .68 188.21 400)" vector-effect="non-scaling-stroke"/><g fill="#570033" stroke="#c9a649"><filter id="a" width="142%" height="152%" x="-21%" y="-26%"><feGaussianBlur in="SourceAlpha"/><feOffset dx="3" dy="5" result="oBlur"/><feFlood flood-color="#000" flood-opacity="1"/><feComposite in2="oBlur" operator="in"/><feMerge><feMergeNode/><feMergeNode in="SourceGraphic"/></feMerge></filter><path stroke-width=".41" d="M922.23 776.702q-1.39 0-2.36-.97t-.97-2.35v-47.44q0-1.45.97-2.38.97-.94 2.36-.94h31.71q1.45 0 2.35.87.9.86.9 2.25 0 1.31-.9 2.18-.9.86-2.35.86h-28.39v17.59h20.43q1.45 0 2.35.87.9.86.9 2.25 0 1.31-.9 2.18-.9.86-2.35.86h-20.43v20.85q0 1.38-.97 2.35t-2.35.97Zm47.64 0q-1.46 0-2.39-.94-.94-.93-.94-2.38v-47.44q0-1.45.94-2.38.93-.94 2.39-.94 1.45 0 2.35.94.9.93.9 2.38v47.44q0 1.45-.9 2.38-.9.94-2.35.94Zm32.96 0q-1.32 0-2.29-.97t-.97-2.35v-50.76h6.58v50.76q0 1.38-.94 2.35-.93.97-2.38.97Zm18.76-47.99h-37.46q-1.38 0-2.22-.86-.83-.87-.83-2.18 0-1.39.83-2.22.84-.83 2.22-.83h37.46q1.38 0 2.22.83.83.83.83 2.22 0 1.31-.83 2.18-.84.86-2.22.86Zm14.33 47.99q-1.45 0-2.39-.94-.93-.93-.93-2.38v-47.44q0-1.45.93-2.38.94-.94 2.39-.94 1.46 0 2.36.94.9.93.9 2.38v47.44q0 1.45-.9 2.38-.9.94-2.36.94Zm16.07 0q-1.39 0-2.36-.97t-.97-2.35v-47.44q0-1.45.97-2.38.97-.94 2.36-.94h31.71q1.45 0 2.35.87.91.86.91 2.25 0 1.31-.91 2.18-.9.86-2.35.86h-28.39v17.59h20.43q1.45 0 2.35.87.9.86.9 2.25 0 1.31-.9 2.18-.9.86-2.35.86h-20.43v20.85q0 1.38-.97 2.35t-2.35.97Zm60.31 0q-1.39 0-2.32-.97-.94-.97-.94-2.35v-16.48l-18.62-29.15q-.83-1.32-.63-2.5.21-1.17 1.11-1.9t2.08-.73q1.11 0 1.73.45t1.18 1.35l17.93 28.6h-2.77l18.07-28.74q.56-.83 1.25-1.24.69-.42 1.73-.42 1.18 0 1.94.8.76.79.9 1.97t-.62 2.36l-18.77 29.15v16.48q0 1.38-.93 2.35-.94.97-2.32.97Z" filter="url(#a)" font-family="Comfortaa" font-size="69.243"/></g><path fill="#570033" d="M935.73 823.802h-14.95q-.54 0-.89-.36-.35-.35-.35-.89v-22.41q0-.54.35-.89t.89-.35h14.95q.51 0 .88.33.37.34.37.88 0 .48-.37.83t-.88.35h-13.71v8.8H932q.54 0 .89.35.36.35.36.86t-.36.86q-.35.35-.89.35h-9.98v8.89h13.71q.51 0 .88.35.37.36.37.83 0 .55-.37.88-.37.34-.88.34m13.23.15q-2.45 0-4.4-1.16-1.94-1.16-3.07-3.17-1.14-2.01-1.14-4.53 0-2.55 1.17-4.56 1.16-2.01 3.17-3.17t4.53-1.16 4.51 1.16 3.15 3.17q1.17 2.01 1.2 4.56l-.99.77q0 2.29-1.07 4.13-1.06 1.83-2.9 2.9-1.83 1.06-4.16 1.06m.26-2.23q1.85 0 3.3-.86t2.29-2.37q.85-1.52.85-3.4 0-1.91-.85-3.41-.84-1.5-2.29-2.37-1.45-.88-3.3-.88-1.82 0-3.29.88-1.46.87-2.32 2.37t-.86 3.41q0 1.88.86 3.4.86 1.51 2.32 2.37 1.47.86 3.29.86m7.62 2.08q-.55 0-.9-.34-.35-.33-.35-.88v-5.45l.61-2.52 1.88.48v7.49q0 .55-.35.88-.35.34-.89.34m13.51 0h-.67q-1.68 0-3.01-.8-1.32-.8-2.09-2.19-.76-1.38-.76-3.17v-15.59q0-.54.33-.89.34-.35.88-.35t.89.35.35.89v15.59q0 1.63.96 2.66.96 1.04 2.45 1.04h.87q.51 0 .82.35.32.35.32.89 0 .55-.38.88-.38.34-.96.34m-.47-14.67h-8.13q-.48 0-.8-.3-.32-.31-.32-.75 0-.48.32-.78.32-.31.8-.31h8.13q.47 0 .79.31.32.3.32.78 0 .44-.32.75-.32.3-.79.3m16.7 14.67q-.54 0-.89-.36-.35-.35-.35-.89v-22.41q0-.54.35-.89t.89-.35.89.35.35.89v9.95h15.56v-9.95q0-.54.35-.89t.9-.35q.54 0 .89.35t.35.89v22.41q0 .54-.35.89-.35.36-.89.36-.55 0-.9-.36-.35-.35-.35-.89v-10.23h-15.56v10.23q0 .54-.35.89-.35.36-.89.36m33.25.15q-2.58 0-4.57-1.13t-3.13-3.14q-1.13-2.01-1.13-4.59 0-2.61 1.07-4.61 1.07-1.99 2.95-3.14 1.88-1.14 4.33-1.14 2.43 0 4.23 1.1t2.79 3.04q.99 1.95.99 4.43 0 .51-.32.82-.32.3-.83.3h-13.55v-2.04h13.8l-1.37.99q.03-1.85-.67-3.32t-1.99-2.29q-1.29-.83-3.08-.83-1.81 0-3.18.86t-2.12 2.37q-.75 1.52-.75 3.46 0 1.95.84 3.44.85 1.5 2.31 2.36 1.47.86 3.38.86 1.15 0 2.31-.39 1.17-.4 1.87-1.01.35-.29.8-.3.44-.02.76.24.42.38.43.83.02.44-.36.76-1.06.89-2.68 1.48-1.63.59-3.13.59m18.72 0q-2.46 0-4.4-1.16-1.95-1.16-3.08-3.17t-1.13-4.53q0-2.55 1.16-4.56 1.17-2.01 3.17-3.17 2.01-1.16 4.53-1.16t4.51 1.16q2 1.16 3.16 3.17t1.19 4.56l-.98.77q0 2.29-1.07 4.13-1.07 1.83-2.9 2.9-1.84 1.06-4.16 1.06m.25-2.23q1.85 0 3.3-.86t2.3-2.37q.84-1.52.84-3.4 0-1.91-.84-3.41-.85-1.5-2.3-2.37-1.45-.88-3.3-.88-1.82 0-3.28.88-1.47.87-2.33 2.37t-.86 3.41q0 1.88.86 3.4.86 1.51 2.33 2.37 1.46.86 3.28.86m7.62 2.08q-.54 0-.89-.34-.35-.33-.35-.88v-5.45l.6-2.52 1.88.48v7.49q0 .55-.35.88-.35.34-.89.34m10.2 0h-.41q-1.28 0-2.28-.71-1.01-.7-1.56-1.94-.56-1.24-.56-2.87v-18.17q0-.54.33-.88.34-.33.88-.33t.88.33q.33.34.33.88v18.17q0 1.37.56 2.23t1.42.86h.8q.47 0 .76.34.29.33.29.87 0 .55-.4.88-.4.34-1.04.34m12.31 0h-.67q-1.69 0-3.01-.8-1.33-.8-2.09-2.19-.77-1.38-.77-3.17v-15.59q0-.54.34-.89.33-.35.87-.35.55 0 .9.35t.35.89v15.59q0 1.63.95 2.66.96 1.04 2.46 1.04h.86q.51 0 .83.35t.32.89q0 .55-.38.88-.39.34-.96.34m-.48-14.67h-8.13q-.48 0-.8-.3-.31-.31-.31-.75 0-.48.31-.78.32-.31.8-.31h8.13q.48 0 .8.31.32.3.32.78 0 .44-.32.75-.32.3-.8.3m20.75 14.67q-.54 0-.89-.36-.35-.35-.35-.86v-8.29q0-1.97-.75-3.25-.75-1.27-2.04-1.91t-2.92-.64q-1.56 0-2.82.61-1.26.6-1.99 1.66-.73 1.05-.73 2.39h-1.76q.07-2.01 1.09-3.59t2.71-2.49q1.69-.9 3.76-.9 2.26 0 4.05.94 1.78.94 2.82 2.75 1.04 1.82 1.04 4.43v8.29q0 .51-.35.86-.35.36-.87.36m-13.7 0q-.58 0-.91-.34-.34-.33-.34-.88v-14.98q0-.57.34-.91.33-.33.91-.33.54 0 .87.33.34.34.34.91v14.98q0 .55-.34.88-.33.34-.87.34m0-7.11q-.58 0-.91-.36-.34-.35-.34-.89v-15.3q0-.57.34-.91.33-.33.91-.33.54 0 .87.33.34.34.34.91v15.3q0 .54-.34.89-.33.36-.87.36m23.33 14.69q-.25 0-.57-.12-1.08-.48-.61-1.54l10.3-22.69q.48-1.02 1.53-.58 1.08.45.61 1.5l-10.33 22.7q-.32.73-.93.73m3.54-8.13q-.48.23-.89.08-.42-.14-.67-.62l-7.11-14.73q-.22-.48-.06-.89t.63-.64q.48-.22.9-.08.41.15.63.62l6.99 14.73q.25.48.16.9-.1.41-.58.63m30.13.55h-8.13q-.61 0-1.01-.34-.39-.33-.39-.91v-22.41q0-.54.35-.89t.89-.35h7.75q1.91 0 3.46.81 1.54.81 2.45 2.21.91 1.41.91 3.26 0 1.72-.93 3.06-.92 1.34-2.42 2.04 2.14.57 3.44 2.15 1.31 1.58 1.31 4 0 2.17-.99 3.83-.98 1.65-2.72 2.59-1.74.95-3.97.95m-7.05-12.12v9.72h7.05q1.53 0 2.71-.6 1.18-.61 1.85-1.72.67-1.12.67-2.65 0-1.43-.67-2.5t-1.85-1.66-2.71-.59Zm0-10.39v8h6.51q1.91 0 3.15-1.08 1.25-1.09 1.25-3.03 0-1.92-1.25-2.9-1.24-.99-3.15-.99Zm27.26 22.66q-2.58 0-4.57-1.13-2-1.13-3.13-3.14t-1.13-4.59q0-2.61 1.07-4.61 1.07-1.99 2.95-3.14 1.88-1.14 4.33-1.14 2.43 0 4.23 1.1t2.79 3.04q.98 1.95.98 4.43 0 .51-.31.82-.32.3-.83.3h-13.55v-2.04h13.8l-1.37.99q.03-1.85-.67-3.32t-1.99-2.29q-1.29-.83-3.08-.83-1.81 0-3.19.86-1.37.86-2.12 2.37-.74 1.52-.74 3.46 0 1.95.84 3.44.85 1.5 2.31 2.36 1.47.86 3.38.86 1.15 0 2.31-.39 1.17-.4 1.87-1.01.35-.29.79-.3.45-.02.77.24.41.38.43.83.02.44-.37.76-1.05.89-2.67 1.48-1.63.59-3.13.59m26.65-.15q-.44 0-.78-.29-.33-.29-.46-.74l-6.54-22.09q-.22-.76.08-1.27.31-.51.98-.51.38 0 .71.2.34.21.5.75l5.9 20.53h-.74l5.58-19.99q.1-.35.43-.57.34-.22.75-.22.38 0 .73.2.36.21.45.63l5.61 19.95h-.73l5.93-20.65q.22-.83 1.21-.83.67 0 .92.52.26.53.07 1.26l-6.51 22.06q-.15.51-.49.78-.33.28-.78.28t-.78-.29q-.34-.29-.46-.74l-5.55-20.24h.76l-5.51 20.21q-.16.48-.5.77-.33.29-.78.29m28.66.15q-2.58 0-4.57-1.13t-3.13-3.14q-1.13-2.01-1.13-4.59 0-2.61 1.07-4.61 1.07-1.99 2.95-3.14 1.88-1.14 4.34-1.14 2.42 0 4.22 1.1t2.79 3.04q.99 1.95.99 4.43 0 .51-.32.82-.32.3-.83.3h-13.55v-2.04h13.8l-1.37.99q.04-1.85-.67-3.32-.7-1.47-1.99-2.29-1.29-.83-3.07-.83-1.82 0-3.19.86t-2.12 2.37q-.75 1.52-.75 3.46 0 1.95.84 3.44.85 1.5 2.31 2.36 1.47.86 3.38.86 1.15 0 2.32-.39 1.16-.4 1.86-1.01.35-.29.8-.3.44-.02.76.24.42.38.43.83.02.44-.36.76-1.06.89-2.68 1.48-1.63.59-3.13.59m18.72 0q-2.46 0-4.4-1.16-1.95-1.16-3.08-3.17t-1.13-4.53q0-2.55 1.16-4.56 1.17-2.01 3.18-3.17 2-1.16 4.52-1.16t4.51 1.16q2 1.16 3.16 3.17t1.2 4.56l-.99.77q0 2.29-1.07 4.13-1.07 1.83-2.9 2.9-1.83 1.06-4.16 1.06m.25-2.23q1.85 0 3.3-.86t2.3-2.37q.84-1.52.84-3.4 0-1.91-.84-3.41-.85-1.5-2.3-2.37-1.45-.88-3.3-.88-1.81 0-3.28.88-1.47.87-2.33 2.37t-.86 3.41q0 1.88.86 3.4.86 1.51 2.33 2.37t3.28.86m7.62 2.08q-.54 0-.89-.34-.35-.33-.35-.88v-5.45l.6-2.52 1.89.48v7.49q0 .55-.36.88-.35.34-.89.34m10.2 0h-.41q-1.28 0-2.28-.71-1-.7-1.56-1.94t-.56-2.87v-18.17q0-.54.33-.88.34-.33.88-.33t.88.33q.33.34.33.88v18.17q0 1.37.56 2.23t1.42.86h.8q.47 0 .76.34.29.33.29.87 0 .55-.4.88-.4.34-1.04.34m12.31 0h-.67q-1.69 0-3.01-.8-1.33-.8-2.09-2.19-.77-1.38-.77-3.17v-15.59q0-.54.34-.89.33-.35.88-.35.54 0 .89.35t.35.89v15.59q0 1.63.96 2.66.95 1.04 2.45 1.04h.86q.51 0 .83.35t.32.89q0 .55-.38.88-.39.34-.96.34m-.48-14.67h-8.13q-.48 0-.79-.3-.32-.31-.32-.75 0-.48.32-.78.31-.31.79-.31h8.13q.48 0 .8.31.32.3.32.78 0 .44-.32.75-.32.3-.8.3m20.76 14.67q-.55 0-.9-.36-.35-.35-.35-.86v-8.29q0-1.97-.75-3.25-.75-1.27-2.04-1.91t-2.91-.64q-1.57 0-2.83.61-1.25.6-1.99 1.66-.73 1.05-.73 2.39h-1.75q.06-2.01 1.08-3.59t2.71-2.49q1.69-.9 3.76-.9 2.26 0 4.05.94t2.82 2.75q1.04 1.82 1.04 4.43v8.29q0 .51-.35.86-.35.36-.86.36m-13.71 0q-.58 0-.91-.34-.34-.33-.34-.88v-14.98q0-.57.34-.91.33-.33.91-.33.54 0 .87.33.34.34.34.91v14.98q0 .55-.34.88-.33.34-.87.34m0-7.11q-.58 0-.91-.36-.34-.35-.34-.89v-15.3q0-.57.34-.91.33-.33.91-.33.54 0 .87.33.34.34.34.91v15.3q0 .54-.34.89-.33.36-.87.36m23.33 14.69q-.25 0-.57-.12-1.08-.48-.61-1.54l10.3-22.69q.48-1.02 1.53-.58 1.09.45.61 1.5l-10.33 22.7q-.32.73-.93.73m3.54-8.13q-.48.23-.89.08-.41-.14-.67-.62l-7.11-14.73q-.22-.48-.06-.89t.63-.64q.48-.22.9-.08.41.15.64.62l6.98 14.73q.25.48.16.9-.1.41-.58.63" font-family="Comfortaa" font-size="31.881"/><path fill="#570033" d="M786.4 837.982q-1.45 0-2.46-1.02-1.01-1.01-1.01-2.46v-49.63q0-1.52 1.01-2.5t2.46-.98h33.19q1.52 0 2.46.91.94.9.94 2.35 0 1.38-.94 2.28-.94.91-2.46.91h-29.71v18.4h21.38q1.52 0 2.46.91.94.9.94 2.35 0 1.38-.94 2.29-.94.9-2.46.9h-21.38v21.81q0 1.45-1.01 2.46-1.02 1.02-2.47 1.02" font-family="Comfortaa" font-size="72.456"/><path fill="#fdebed" d="M789.31 835.092q-1.45 0-2.46-1.01-1.02-1.02-1.02-2.47v-49.63q0-1.52 1.02-2.5 1.01-.98 2.46-.98h33.19q1.52 0 2.46.91.94.9.94 2.35 0 1.38-.94 2.28-.94.91-2.46.91h-29.71v18.4h21.37q1.53 0 2.47.91t.94 2.35q0 1.38-.94 2.29-.94.9-2.47.9h-21.37v21.81q0 1.45-1.01 2.47-1.02 1.01-2.47 1.01" font-family="Comfortaa" font-size="72.456"/></g><path fill="transparent" stroke="transparent" stroke-width="2.773" d="M250 560.074h1500v379.852H250z"/></g></svg>